<svg xmlns="http://www.w3.org/2000/svg" version="1.1" xmlns:xlink="http://www.w3.org/1999/xlink" xmlns:svgjs="http://svgjs.com/svgjs" width="512" height="512" x="0" y="0" viewBox="0 0 512.002 512.002" style="enable-background:new 0 0 512 512" xml:space="preserve" class=""><g>
<path xmlns="http://www.w3.org/2000/svg" style="" d="M184.008,116.716c2.619,0,5.146,0.393,7.529,1.114V105.6c61.191,7.437,108.918-28.632,108.918-28.632  l26.636,28.632v12.23c2.384-0.722,4.908-1.114,7.529-1.114c5.872,0,11.287,1.954,15.634,5.245V90.943  c0-50.226-40.712-90.942-90.941-90.942c-50.227,0-90.942,40.716-90.942,90.942v31.018  C172.721,118.671,178.135,116.716,184.008,116.716z" fill="#67737c" data-original="#67737c"></path>
<g xmlns="http://www.w3.org/2000/svg" style="opacity:0.1;">
	<path style="" d="M186.22,90.943c0-47.216,35.981-86.017,82.018-90.501C265.302,0.155,262.327,0,259.315,0   c-50.227,0-90.942,40.716-90.942,90.942v31.018c4.347-3.291,9.763-5.245,15.636-5.245c0.746,0,1.482,0.04,2.212,0.103V90.943z" fill="#231f20" data-original="#231f20"></path>
</g>
<path xmlns="http://www.w3.org/2000/svg" style="" d="M400.758,281.285l-39.718-14.208L319,252.039l-21.667-7.75h-76.018l-34.834,12.461l-40.624,14.532  l-27.966,10.004c0,0-26.771,7.68-33.464,34.905c-6.693,27.226-21.565,136.821-21.565,136.821s-5.949,41.886,31.233,41.886  c12.585,0,38.468,0,67.207,0h99.683l0,0h55.666v16.45l2.211,0.654h117.242c7.393,0,13.386-5.993,13.386-13.386  c0-31.397,0-110.131,0-149.473C449.49,299.318,400.758,281.285,400.758,281.285z" fill="#ff5959" data-original="#ff5959" class=""></path>
<g xmlns="http://www.w3.org/2000/svg" style="opacity:0.1;">
	<path style="" d="M81.303,460.826c0,0,16.425-121.033,23.817-151.101c4.15-16.882,15.29-26.957,24.261-32.549   l-11.49,4.111c0,0-26.771,7.68-33.464,34.905c-6.693,27.226-21.565,136.821-21.565,136.821s-5.274,37.232,25.306,41.478   C78.468,480.793,81.303,460.826,81.303,460.826z" fill="#231f20" data-original="#231f20"></path>
</g>
<g xmlns="http://www.w3.org/2000/svg">
	<path style="" d="M177.775,426.11c0-4.621-3.746-8.366-8.366-8.366h-32.182c-4.62,0-8.366,3.745-8.366,8.366   s3.746,8.366,8.366,8.366h32.182C174.029,434.476,177.775,430.731,177.775,426.11z" fill="#e84949" data-original="#e84949"></path>
	<path style="" d="M394.408,512.001V387.069c0-4.621-3.745-8.366-8.366-8.366c-4.62,0-8.366,3.745-8.366,8.366v124.932   H394.408z" fill="#e84949" data-original="#e84949"></path>
</g>
<path xmlns="http://www.w3.org/2000/svg" style="" d="M284.558,494.899c7.84,10.387,20.288,17.102,34.303,17.102c23.719,0,42.946-19.227,42.946-42.947  c0-23.717-19.226-42.944-42.946-42.944h-43.919v68.788h9.616" fill="#f0a479" data-original="#f0a479"></path>
<g xmlns="http://www.w3.org/2000/svg">
	<path style="" d="M194.884,116.715c-2.384-0.722-8.257-1.114-10.876-1.114c-14.324,0-25.935,11.611-25.935,25.935   s11.611,25.935,25.935,25.935c2.619,0,8.492-0.393,10.876-1.114V116.715z" fill="#e09068" data-original="#e09068"></path>
	<path style="" d="M323.745,116.715c2.384-0.722,8.254-1.114,10.876-1.114c14.323,0,25.935,11.611,25.935,25.935   s-11.612,25.935-25.935,25.935c-2.621,0-8.492-0.393-10.876-1.114V116.715z" fill="#e09068" data-original="#e09068"></path>
	<path style="" d="M298.63,212.092c-0.907-0.484-2.008-0.432-2.863,0.139c-10.524,7.023-22.795,10.734-35.484,10.734   h-1.935c-12.69,0-24.96-3.712-35.484-10.734c-0.856-0.57-1.955-0.625-2.863-0.139c-0.907,0.485-1.474,1.43-1.474,2.458v40.893   c0,0.869,0.405,1.69,1.097,2.216l37.998,29.002c0.5,0.382,1.095,0.572,1.692,0.572c0.597,0,1.192-0.191,1.692-0.572l38-29.002   c0.692-0.528,1.096-1.347,1.096-2.216V214.55C300.103,213.522,299.536,212.577,298.63,212.092z" fill="#e09068" data-original="#e09068"></path>
</g>
<path xmlns="http://www.w3.org/2000/svg" style="" d="M329.133,102.585l-26.636-28.631c-0.973-1.047-2.581-1.187-3.721-0.326  c-0.386,0.29-39.156,29.078-90.462,29.078c-5.505,0-11.036-0.334-16.44-0.991c-0.793-0.096-1.587,0.152-2.185,0.68  c-0.598,0.53-0.939,1.289-0.939,2.088v61.153c0,38.377,31.222,69.597,69.597,69.597h1.935c38.377,0,69.599-31.221,69.599-69.597  v-61.153C329.88,103.78,329.614,103.101,329.133,102.585z" fill="#f0a479" data-original="#f0a479"></path>
<g xmlns="http://www.w3.org/2000/svg" style="opacity:0.1;">
	<path style="" d="M206.597,165.638v-61.153c0-0.665,0.248-1.294,0.672-1.794c-5.159-0.04-10.333-0.359-15.393-0.975   c-0.793-0.096-1.587,0.152-2.185,0.68c-0.598,0.53-0.939,1.289-0.939,2.088v61.153c0,38.377,31.222,69.597,69.597,69.597h1.935   c2.693,0,5.344-0.17,7.956-0.468C233.598,230.805,206.597,201.322,206.597,165.638z" fill="#231f20" data-original="#231f20"></path>
</g>
<path xmlns="http://www.w3.org/2000/svg" style="" d="M353.436,252.767l-19.99-7.567c-3.644-1.379-7.746,0.137-9.615,3.555l-82.096,150.074l-11.479,20.867  l2.51,6.414h11.34h11.896h40.547c3.339,0,6.307-2.122,7.388-5.281l54.124-158.231C359.423,258.609,357.378,254.26,353.436,252.767z" fill="#fbca61" data-original="#fbca61"></path>
<polygon xmlns="http://www.w3.org/2000/svg" style="opacity:0.1;enable-background:new    ;" points="186.481,256.75 182.02,258.346 216.032,426.11   257.094,426.11 199.797,251.985 " fill="#231f20" data-original="#231f20"></polygon>
<path xmlns="http://www.w3.org/2000/svg" style="" d="M263.233,501.761l-81.847-249.796c-0.659-2.011-2.107-3.67-4.012-4.593  c-1.905-0.925-4.104-1.036-6.092-0.308l-17.42,6.374c-3.25,1.189-5.33,4.375-5.11,7.829l15.523,243.422  c0.262,4.112,3.673,7.312,7.793,7.312h83.746c2.503,0,4.855-1.199,6.322-3.227C263.605,506.748,264.013,504.14,263.233,501.761z" fill="#fbca61" data-original="#fbca61"></path>
<path xmlns="http://www.w3.org/2000/svg" style="opacity:0.1;enable-background:new    ;" d="M166.74,252.674c-0.096-1.517,0.239-2.977,0.887-4.271  l-13.765,5.036c-3.25,1.189-5.33,4.375-5.11,7.829l15.523,243.422c0.262,4.112,3.673,7.312,7.793,7.312h11.21L166.74,252.674z" fill="#231f20" data-original="#231f20"></path>
<g xmlns="http://www.w3.org/2000/svg">
</g>
<g xmlns="http://www.w3.org/2000/svg">
</g>
<g xmlns="http://www.w3.org/2000/svg">
</g>
<g xmlns="http://www.w3.org/2000/svg">
</g>
<g xmlns="http://www.w3.org/2000/svg">
</g>
<g xmlns="http://www.w3.org/2000/svg">
</g>
<g xmlns="http://www.w3.org/2000/svg">
</g>
<g xmlns="http://www.w3.org/2000/svg">
</g>
<g xmlns="http://www.w3.org/2000/svg">
</g>
<g xmlns="http://www.w3.org/2000/svg">
</g>
<g xmlns="http://www.w3.org/2000/svg">
</g>
<g xmlns="http://www.w3.org/2000/svg">
</g>
<g xmlns="http://www.w3.org/2000/svg">
</g>
<g xmlns="http://www.w3.org/2000/svg">
</g>
<g xmlns="http://www.w3.org/2000/svg">
</g>
</g></svg>