<?xml version="1.0" encoding="iso-8859-1"?>
<svg xmlns="http://www.w3.org/2000/svg" version="1.1" xmlns:xlink="http://www.w3.org/1999/xlink" xmlns:svgjs="http://svgjs.com/svgjs" x="0" y="0" viewBox="0 0 509.43 509.43" style="enable-background:new 0 0 512 512" xml:space="preserve" class="">
<g>
<g xmlns="http://www.w3.org/2000/svg">
<path d="m470 149.715v105l-89.791 100.088-3.956-136.554 33.747-68.534z" fill="#ff9000" data-original="#ff9000" class="">
</path>
<path d="m102.495 164.715-42.495 90 15.593 140-75.593 100v-405h60z" fill="#ffcc00" data-original="#ffcc00" class="">
</path>
<path d="m410 14.715v270h-175l-40.725-144.33 40.725-125.67z" fill="#dceaec" data-original="#dceaec" class="">
</path>
<path d="m60 14.715h175v270h-175z" fill="#f1f6f7" data-original="#f1f6f7" class="">
</path>
<path d="m270 225.895v43.82h-35l-12.637-51.466 12.637-45.974 17.7 15.49c10.99 9.62 17.3 23.52 17.3 38.13z" fill="#00b5bc" data-original="#00b5bc" class="">
</path>
<path d="m235 172.275v97.44h-115v-43.82c0-14.61 6.31-28.51 17.3-38.13l32.06-28.05h51.28z" fill="#00eecf" data-original="#00eecf" class="">
</path>
<path d="m275 74.715h85v30h-85z" fill="#00b5bc" data-original="#00b5bc" class="">
</path>
<path d="m305 134.715h55v30h-55z" fill="#00b5bc" data-original="#00b5bc" class="">
</path>
<path d="m245 124.715v20c0 11.23-3.72 21.61-10 29.97l-12.637-35.882 12.637-44.058c6.28 8.36 10 18.74 10 29.97z" fill="#ffd298" data-original="#ffd298">
</path>
<path d="m235 94.745v79.94c-9.13 12.15-23.66 20.03-40 20.03-27.57 0-50-22.43-50-50v-20c0-27.57 22.43-50 50-50 16.34 0 30.87 7.88 40 20.03z" fill="#ffe3c1" data-original="#ffe3c1">
</path>
<path d="m509.43 254.715-62.85 240h-211.58l-30.44-108 30.44-132z" fill="#ffcc00" data-original="#ffcc00" class="">
</path>
<path d="m235 254.715v132 108h-235l60-240z" fill="#ffe377" data-original="#ffe377" class="">
</path>
</g>
</g>
</svg>