<?xml version="1.0" encoding="iso-8859-1"?>
<!-- Generator: Adobe Illustrator 19.0.0, SVG Export Plug-In . SVG Version: 6.00 Build 0)  -->
<svg xmlns="http://www.w3.org/2000/svg" version="1.1" xmlns:xlink="http://www.w3.org/1999/xlink" xmlns:svgjs="http://svgjs.com/svgjs" width="512" height="512" x="0" y="0" viewBox="0 0 512 512" style="enable-background:new 0 0 512 512" xml:space="preserve" class="hovered-paths"><g transform="matrix(1,0,0,1,0,10)">
<path xmlns="http://www.w3.org/2000/svg" style="" d="M157.205,178.468h7.465v5.185c0,28.146,20.842,60.128,46.637,75.842l-0.002,26.01  c0,2.442-1.592,4.599-3.926,5.319l-32.814,17.487l4.288,4.294c42.438,42.503,111.881,42.502,154.318-0.002l4.282-4.289  l-32.837-17.49c-2.334-0.72-3.925-2.877-3.925-5.319l-0.002-26.221c25.809-15.721,46.64-47.673,46.64-75.831v-4.985h7.465  c7.069,0,12.8-5.731,12.8-12.8v-25.07l0,0c-0.011-3.818-3.109-6.907-6.927-6.907H151.332c-3.818,0-6.916,3.089-6.927,6.907l0,0  v25.071C144.405,172.737,150.136,178.468,157.205,178.468z" fill="#fed9a8" data-original="#fed9a8" class=""></path>
<path xmlns="http://www.w3.org/2000/svg" style="" d="M254.663,496.528c0.244,0.451,0.659,0.699,1.1,0.764c0.079,0.012,0.158,0.006,0.237,0.007  c0.079,0,0.159,0.006,0.237-0.007c0.44-0.065,0.856-0.313,1.1-0.764l85.73-202.602l-20.046-7.083  c-3.174-1.121-6.692-0.659-9.468,1.244L256,327.537l-57.553-39.45c-2.776-1.903-6.294-2.365-9.468-1.244l-20.046,7.083  L254.663,496.528z" fill="#10c4c4" data-original="#10c4c4" class=""></path>
<polygon xmlns="http://www.w3.org/2000/svg" style="" points="267.045,370.489 244.955,370.489 224.59,503.489 287.41,503.489 " fill="#ff9a1f" data-original="#ff9a1f" class="hovered-path"></polygon>
<path xmlns="http://www.w3.org/2000/svg" style="" d="M256,327.537l-29.489,23.517c-0.754,0.629-0.946,1.709-0.454,2.559l15.05,26.016  c0.361,0.623,1.026,1.007,1.746,1.007h26.295c0.72,0,1.385-0.384,1.746-1.007l15.05-26.016c0.492-0.85,0.3-1.93-0.454-2.559  L256,327.537z" fill="#ffbf14" data-original="#ffbf14" class=""></path>
<g xmlns="http://www.w3.org/2000/svg">
	<path style="" d="M200.145,372.101l26.609-21.241L256,327.537l-57.553-39.45c-2.776-1.903-6.294-2.365-9.468-1.244   l-29.298,10.352L200.145,372.101z" fill="#0fb0c0" data-original="#0fb0c0" class=""></path>
	<path style="" d="M311.855,372.101l-26.609-21.241L256,327.537l57.552-39.45c2.776-1.903,6.294-2.365,9.468-1.244   l29.298,10.352L311.855,372.101z" fill="#0fb0c0" data-original="#0fb0c0" class=""></path>
</g>
<path xmlns="http://www.w3.org/2000/svg" style="" d="M511.966,485.983l-4.647-85.371c-1.919-30.176-21.641-56.291-50.111-66.353l-122.852-43.41  l-77.327,182.745c-0.187,0.347-0.507,0.538-0.846,0.588c-0.06,0.009-0.121,0.005-0.182,0.005s-0.122,0.004-0.182-0.005  c-0.339-0.05-0.658-0.241-0.846-0.588l-77.329-182.745l-122.852,43.41C26.322,344.321,6.6,370.435,4.681,400.612l-4.647,85.371  c-0.603,9.483,6.914,17.506,16.401,17.506h239.361h0.408h239.361C505.052,503.489,512.569,495.466,511.966,485.983z" fill="#e1effb" data-original="#e1effb" class=""></path>
<path xmlns="http://www.w3.org/2000/svg" style="" d="M511.966,485.983l-4.647-85.371c-1.919-30.176-21.641-56.291-50.111-66.353l-122.852-43.41  l-6.93,16.378l76.503,27.033c28.47,10.062,48.193,36.176,50.111,66.353l4.464,82.005h-19.701v-68.36  c0-4.269-3.461-7.731-7.731-7.731s-7.731,3.461-7.731,7.731v68.36H256.204h-0.408H88.659v-68.36c0-4.269-3.461-7.731-7.731-7.731  c-4.27,0-7.731,3.461-7.731,7.731v68.36H16.435c-7.323,0-13.454-4.788-15.601-11.33l-0.8,14.697  c-0.603,9.483,6.914,17.506,16.401,17.506h56.762h15.461h167.137h0.408H423.34h15.461h3.483h53.279  C505.052,503.489,512.569,495.466,511.966,485.983z" fill="#ccdfed" data-original="#ccdfed" class=""></path>
<path xmlns="http://www.w3.org/2000/svg" style="" d="M164.676,183.657c0,34.812,31.882,75.507,65.589,84.006c21.901,5.522,28.309,5.56,50.228,0.109  l1.001-0.249c33.824-8.411,65.829-49.161,65.829-84.065V85.951H164.676V183.657z" fill="#fed9a8" data-original="#fed9a8" class=""></path>
<path xmlns="http://www.w3.org/2000/svg" style="" d="M320.107,243.062H191.893c-32.394,0-58.749,26.355-58.749,58.749v31.309  c-13.961,3.689-24.702,15.94-25.868,30.897l-6.14,78.807c-0.281,3.601,0.965,7.186,3.417,9.836c2.452,2.651,5.929,4.171,9.54,4.171  h10.51c4.27,0,7.731-3.461,7.731-7.731s-3.461-7.731-7.731-7.731h-7.845l5.934-76.151c0.777-9.972,9.221-17.784,19.224-17.784  c10.001,0,18.446,7.812,19.223,17.784l5.935,76.152h-7.846c-4.27,0-7.731,3.461-7.731,7.731s3.461,7.731,7.731,7.731h10.51  c3.612,0,7.088-1.52,9.541-4.171c2.452-2.651,3.698-6.236,3.417-9.835l-6.141-78.808c-1.224-15.692-12.983-28.413-27.947-31.385  v-30.821c0-23.869,19.419-43.288,43.288-43.288H320.11c23.868,0,43.288,19.419,43.288,43.288v95.358  c0,4.269,3.461,7.731,7.731,7.731s7.731-3.461,7.731-7.731v-95.358C378.856,269.417,352.501,243.062,320.107,243.062z" fill="#999999" data-original="#999999" class=""></path>
<path xmlns="http://www.w3.org/2000/svg" style="" d="M187.041,238.259c8.912,10.679,19.8,19.58,31.354,25.068h74.76  c11.653-5.441,22.644-14.347,31.639-25.068L187.041,238.259L187.041,238.259z" fill="#fed9a8" data-original="#fed9a8" class=""></path>
<circle xmlns="http://www.w3.org/2000/svg" style="" cx="372.16" cy="416.869" r="32.23" fill="#45748c" data-original="#45748c"></circle>
<circle xmlns="http://www.w3.org/2000/svg" style="" cx="372.16" cy="416.869" r="14.865" fill="#61aff6" data-original="#61aff6"></circle>
<path xmlns="http://www.w3.org/2000/svg" style="" d="M294.938,85.951v97.506c0,25.643-17.274,65.623-39.852,88.37c7.176,0.056,14.3-1.294,25.407-4.056  l1.001-0.249c33.824-8.411,65.829-49.161,65.829-84.065V85.951H294.938z" fill="#f4c892" data-original="#f4c892" class=""></path>
<path xmlns="http://www.w3.org/2000/svg" style="" d="M255.82,8.509h-31.641c-43.287,0-78.378,35.091-78.378,78.378l2.932,46.783  c0.38,6.06,7.452,9.393,12.194,5.601c4.234-3.385,6.947-8.594,6.947-14.439V93.847c96.953,44.643,140.693,36.861,160.283,22.826  c6.524-4.674,15.61,0.154,15.61,8.179l0,0c0,5.847,2.717,11.057,6.955,14.442c4.744,3.789,11.814,0.456,12.193-5.604l2.925-46.804  c0-43.287-35.091-78.378-78.378-78.378H255.82V8.509z" fill="#ffb125" data-original="#ffb125" class=""></path>
<path xmlns="http://www.w3.org/2000/svg" style="" d="M287.461,8.509H255.82h-20.744c43.287,0,78.378,35.091,78.378,78.378l-2.358,37.735  c7.105-1.996,12.687-4.815,17.061-7.949c6.524-4.674,15.61,0.154,15.61,8.179l0,0c0,5.847,2.717,11.057,6.955,14.442  c4.744,3.789,11.814,0.456,12.193-5.604l2.925-46.804C365.839,43.6,330.748,8.509,287.461,8.509z" fill="#ff901d" data-original="#ff901d"></path>
<g xmlns="http://www.w3.org/2000/svg">
</g>
<g xmlns="http://www.w3.org/2000/svg">
</g>
<g xmlns="http://www.w3.org/2000/svg">
</g>
<g xmlns="http://www.w3.org/2000/svg">
</g>
<g xmlns="http://www.w3.org/2000/svg">
</g>
<g xmlns="http://www.w3.org/2000/svg">
</g>
<g xmlns="http://www.w3.org/2000/svg">
</g>
<g xmlns="http://www.w3.org/2000/svg">
</g>
<g xmlns="http://www.w3.org/2000/svg">
</g>
<g xmlns="http://www.w3.org/2000/svg">
</g>
<g xmlns="http://www.w3.org/2000/svg">
</g>
<g xmlns="http://www.w3.org/2000/svg">
</g>
<g xmlns="http://www.w3.org/2000/svg">
</g>
<g xmlns="http://www.w3.org/2000/svg">
</g>
<g xmlns="http://www.w3.org/2000/svg">
</g>
</g></svg>